# xmcd
#
# Track frame offsets: 
#        150
#        17955
#        36422
#        60125
#        67285
#        97107
#        104832
#        114747
#        130565
#        146760
#        167245
#        188477
#        220140
#
# Disc length: 3200 seconds
#
# Revision: 1
# Processed by: cddbd v1.5.2PL0 Copyright (c) Steve Scherf et al.
# Submitted via: ExactAudioCopy v0.99pb4
#
DISCID=c50c7e0d
DTITLE=Hanno Herzler - Die verbotene Kammer (15)
DYEAR=2001
DGENRE=Speech
TTITLE0=Mr Paddlers Geburtstag
TTITLE1=Familientragödie
TTITLE2=Der Waldschrat
TTITLE3=Das vesperbrotfressende Sumpfungeheuer
TTITLE4=Ein gruseliges Zuhause
TTITLE5=Tolle Überraschung
TTITLE6=Die verbotene Kammer
TTITLE7=Fünf Meerschweinchen und die Bibel
TTITLE8=Drama am Bahnhof
TTITLE9=Ein neuer echter Freund
TTITLE10=Mit Gott in die Zukunft
TTITLE11=Der Bogenschützen-Wettbewerb
TTITLE12=Eine neue Familie
EXTD=
EXTT0=
EXTT1=
EXTT2=
EXTT3=
EXTT4=
EXTT5=
EXTT6=
EXTT7=
EXTT8=
EXTT9=
EXTT10=
EXTT11=
EXTT12=
PLAYORDER=
